<svg xmlns="http://www.w3.org/2000/svg" version="1.1" width="60" height="60" viewBox="0 0 15.875 15.875" id="svg1" inkscape:version="1.4.2 (f4327f4, 2025-05-13)" sodipodi:docname="favicon.svg" xmlns:inkscape="http://www.inkscape.org/namespaces/inkscape" xmlns:sodipodi="http://sodipodi.sourceforge.net/DTD/sodipodi-0.dtd" xmlns:svg="http://www.w3.org/2000/svg"><metadata><rdf:RDF xmlns:rdf="http://www.w3.org/1999/02/22-rdf-syntax-ns#" xmlns:dc="http://purl.org/dc/elements/1.1/"><rdf:Description><dc:creator>RealFaviconGenerator</dc:creator><dc:source>https://realfavicongenerator.net</dc:source></rdf:Description></rdf:RDF></metadata><sodipodi:namedview id="namedview1" pagecolor="#ffffff" bordercolor="#999999" borderopacity="1" inkscape:showpageshadow="2" inkscape:pageopacity="0" inkscape:pagecheckerboard="0" inkscape:deskcolor="#d1d1d1" inkscape:document-units="mm" inkscape:zoom="8.6448372" inkscape:cx="22.325464" inkscape:cy="34.991983" inkscape:window-width="2560" inkscape:window-height="1494" inkscape:window-x="-11" inkscape:window-y="-11" inkscape:window-maximized="1" inkscape:current-layer="layer1"></sodipodi:namedview><defs id="defs1"></defs><g inkscape:label="Capa 1" inkscape:groupmode="layer" id="layer1">
    <path d="m 9.2480523,15.025644 c -0.4940315,0 -0.9263089,-0.104981 -1.2968324,-0.314946 -0.3581731,-0.197613 -0.5372595,-0.54961 -0.5372595,-1.055992 0,-0.321121 0.08028,-0.679293 0.2408401,-1.074518 0.2223146,0.247016 0.4261028,0.419927 0.6113645,0.518734 0.1976124,0.09881 0.4075755,0.148208 0.6298894,0.148208 0.6175392,0 1.0745181,-0.345821 1.3709376,-1.037465 0.30877,-0.691645 0.463155,-1.457392 0.463155,-2.2972469 0,-1.5685491 -0.586662,-2.3528235 -1.7599875,-2.3528235 -0.3334713,0 -0.6175393,0.018528 -0.8522046,0.055571 L 6.5988092,14.710697 H 3.9310398 L 6.4505991,2.9280484 9.1924738,2.5575249 8.3217434,6.6703361 h 0.1111571 c 0.4693296,0 0.9077827,-0.1482096 1.3153585,-0.4446287 0.407575,-0.3087696 0.734872,-0.6916435 0.981888,-1.1486221 0.247015,-0.4693303 0.370523,-0.9386601 0.370523,-1.4079899 0,-0.5681357 -0.203789,-1.043641 -0.611363,-1.4265157 -0.395227,-0.382874 -1.00659,-0.574311 -1.8340926,-0.574311 -0.7533976,0 -1.4882692,0.172911 -2.2046153,0.5187326 C 5.7342535,2.5204726 5.1475913,3.0268549 4.6906126,3.706148 4.2459848,4.3854411 4.0236706,5.2067681 4.0236706,6.1701291 c 0,0.456979 0.043227,0.7780996 0.1296833,0.9633612 0.086455,0.1729113 0.1296835,0.2717173 0.1296835,0.2964185 -0.6545918,0 -1.148623,-0.1296831 -1.482094,-0.3890493 -0.333471,-0.2717174 -0.5002069,-0.71017 -0.5002069,-1.3153581 0,-0.8398538 0.3149451,-1.6364795 0.9448345,-2.3898769 C 3.8754613,2.5822269 4.7091393,1.9770386 5.7466047,1.5200594 6.7840708,1.0507298 7.8771151,0.81606502 9.0257379,0.81606502 c 0.8645545,0 1.5932501,0.13585831 2.1860891,0.40757498 0.592836,0.2717173 1.031289,0.6298904 1.315359,1.0745189 0.296418,0.4446281 0.444627,0.9324838 0.444627,1.4635673 0,0.5681365 -0.16056,1.1177464 -0.481679,1.64883 -0.321122,0.5310836 -0.778101,0.963361 -1.370938,1.2968322 0.741048,0.1358585 1.290657,0.4816803 1.64883,1.037466 0.358172,0.5434349 0.537259,1.191851 0.537259,1.9452482 0,0.7039954 -0.135859,1.4697444 -0.407576,2.2972464 -0.259366,0.827502 -0.69782,1.543848 -1.315358,2.149036 -0.605189,0.592838 -1.383288,0.889255 -2.3342987,0.889255 z" id="text1" style="font-size:20.2374px;font-family:Lobster;-inkscape-font-specification:Lobster;fill:#ba2124;stroke:#e5c21f;stroke-width:1.54344;stroke-opacity:1;paint-order:markers stroke fill" aria-label="Bame" sodipodi:nodetypes="scsccscssccccccsccscsccscccsscsscssccsccss"></path>
  </g></svg>