<?xml version="1.0" encoding="UTF-8" standalone="no"?>
<!-- Created with Inkscape (http://www.inkscape.org/) -->

<svg
   width="47.685661mm"
   height="17.208088mm"
   viewBox="0 0 47.685661 17.208088"
   version="1.1"
   id="svg1"
   sodipodi:docname="logo_2.svg"
   inkscape:version="1.4.2 (f4327f4, 2025-05-13)"
   xmlns:inkscape="http://www.inkscape.org/namespaces/inkscape"
   xmlns:sodipodi="http://sodipodi.sourceforge.net/DTD/sodipodi-0.dtd"
   xmlns="http://www.w3.org/2000/svg"
   xmlns:svg="http://www.w3.org/2000/svg">
  <sodipodi:namedview
     id="namedview1"
     pagecolor="#ffffff"
     bordercolor="#999999"
     borderopacity="1"
     inkscape:showpageshadow="2"
     inkscape:pageopacity="0"
     inkscape:pagecheckerboard="0"
     inkscape:deskcolor="#d1d1d1"
     inkscape:document-units="mm"
     inkscape:zoom="13.327469"
     inkscape:cx="90.114636"
     inkscape:cy="32.526806"
     inkscape:window-width="2560"
     inkscape:window-height="1494"
     inkscape:window-x="-11"
     inkscape:window-y="-11"
     inkscape:window-maximized="1"
     inkscape:current-layer="layer1" />
  <defs
     id="defs1" />
  <g
     id="layer1"
     transform="translate(-68.42128,-51.616163)">
    <path
       d="m 76.853305,67.98125 q -0.809496,0 -1.416618,-0.344035 -0.586885,-0.323799 -0.586885,-1.153532 0,-0.526173 0.263086,-1.173769 0.364274,0.404748 0.667835,0.566647 0.323798,0.161899 0.688071,0.161899 1.01187,0 1.497568,-1.133294 0.505935,-1.133295 0.505935,-2.509438 0,-2.57015 -1.922553,-2.57015 -0.54641,0 -0.930921,0.06071 l -1.659466,7.750925 h -2.914186 l 2.752286,-12.870987 2.995136,-0.404748 -0.951158,4.492703 h 0.121424 q 0.769021,0 1.436856,-0.485698 0.667834,-0.505935 1.072582,-1.254718 0.404748,-0.769022 0.404748,-1.538043 0,-0.93092 -0.667834,-1.55828 -0.647597,-0.627359 -2.003503,-0.627359 -1.234481,0 -2.408251,0.566647 -1.173769,0.54641 -1.922553,1.659467 -0.728546,1.113057 -0.728546,2.691574 0,0.748784 0.141662,1.052345 0.141662,0.283324 0.141662,0.323798 -1.072583,0 -1.618992,-0.424985 -0.54641,-0.445223 -0.54641,-1.436855 0,-1.376144 1.032107,-2.610625 1.032108,-1.234481 2.732049,-1.983265 1.699942,-0.769021 3.58202,-0.769021 1.416618,0 2.388013,0.445222 0.971395,0.445223 1.436856,1.17377 0.485697,0.728546 0.485697,1.598754 0,0.930921 -0.526172,1.801129 -0.526173,0.870208 -1.497568,1.416618 1.214244,0.222611 1.801129,1.133294 0.586884,0.890446 0.586884,2.124927 0,1.153532 -0.445222,2.509438 -0.424986,1.355906 -1.436856,2.347538 -0.991632,0.971395 -2.549912,0.971395 z m 7.568803,-0.222611 q -1.153532,0 -1.922553,-0.789259 -0.769021,-0.789258 -0.769021,-2.468962 0,-1.497568 0.586884,-3.136797 0.607122,-1.659467 1.780892,-2.792762 1.194006,-1.153531 2.833236,-1.153531 0.829733,0 1.234481,0.283323 0.404748,0.283324 0.404748,0.748784 v 0.141662 l 0.222611,-1.072582 h 2.914186 l -1.457093,6.880716 q -0.08095,0.303561 -0.08095,0.647596 0,0.870209 0.829733,0.870209 0.566647,0 0.971395,-0.526173 0.424986,-0.526172 0.667834,-1.376143 h 0.849971 q -0.748784,2.185639 -1.861841,2.974898 -1.092819,0.769021 -2.205876,0.769021 -0.849971,0 -1.376143,-0.46546 -0.505935,-0.485698 -0.607122,-1.396381 -0.586885,0.829734 -1.315431,1.355906 -0.708309,0.505935 -1.699941,0.505935 z m 1.315431,-1.963028 q 0.505935,0 0.991633,-0.46546 0.505935,-0.485698 0.688071,-1.315431 l 0.971395,-4.573652 q 0,-0.263087 -0.202374,-0.505935 -0.202374,-0.263087 -0.627359,-0.263087 -0.809496,0 -1.457093,0.951158 -0.647597,0.930921 -1.01187,2.266589 -0.364273,1.315431 -0.364273,2.327301 0,1.01187 0.283324,1.295194 0.303561,0.283323 0.728546,0.283323 z m 19.205311,1.963028 q -1.23448,0 -1.82137,-0.647597 -0.56664,-0.667834 -0.56664,-1.639229 0,-0.424986 0.10118,-0.951158 0.10119,-0.54641 0.20238,-1.052345 0.12142,-0.505935 0.1619,-0.647597 0.1619,-0.708309 0.30356,-1.39638 0.14166,-0.688072 0.14166,-1.113057 0,-1.032108 -0.72855,-1.032108 -0.52617,0 -0.93092,0.526173 -0.40474,0.505935 -0.64759,1.335668 l -1.376146,6.496206 h -2.914186 l 1.47733,-6.981903 q 0.06071,-0.242849 0.06071,-0.505935 0,-0.890446 -0.607122,-0.890446 -0.566648,0 -0.991633,0.526172 -0.404748,0.505935 -0.647597,1.355906 l -1.376143,6.496206 H 91.86949 l 2.145165,-10.1187 h 2.914185 l -0.222611,1.052344 q 1.032107,-1.153531 2.468963,-1.153531 1.780888,0 2.084448,1.740416 1.11306,-1.720179 2.813,-1.720179 1.03211,0 1.63923,0.566647 0.60712,0.566647 0.60712,1.720179 0,0.586885 -0.14166,1.315431 -0.14166,0.708309 -0.40475,1.740417 -0.16189,0.627359 -0.30356,1.234481 -0.12142,0.586885 -0.12142,0.93092 0,0.404748 0.18214,0.62736 0.18213,0.222611 0.62735,0.222611 0.60713,0 0.9714,-0.424985 0.36427,-0.445223 0.72855,-1.355906 h 0.84997 q -0.74879,2.226114 -1.74042,2.995135 -0.97139,0.748784 -2.02374,0.748784 z m 5.76768,0 q -1.47733,0 -2.30707,-0.769021 -0.82973,-0.789259 -0.82973,-2.448726 0,-1.39638 0.54641,-3.076084 0.54641,-1.679705 1.78089,-2.893949 1.23448,-1.234481 3.1368,-1.234481 2.22611,0 2.22611,1.94279 0,1.133295 -0.6476,2.084453 -0.64759,0.951157 -1.72018,1.538042 -1.07258,0.566647 -2.28682,0.647597 -0.0405,0.445223 -0.0405,0.607122 0,1.679704 1.25472,1.679704 0.56665,0 1.21425,-0.303561 0.64759,-0.303561 1.17377,-0.769021 -0.54641,2.995135 -3.50107,2.995135 z m 0.0405,-5.180774 q 0.76902,-0.02024 1.43686,-0.505935 0.68807,-0.485698 1.09282,-1.234482 0.42498,-0.769021 0.42498,-1.598754 0,-0.829734 -0.50593,-0.829734 -0.70831,0 -1.41662,1.295194 -0.68807,1.274956 -1.03211,2.873711 z"
       id="text1"
       style="font-size:20.2374px;font-family:Lobster;-inkscape-font-specification:Lobster;fill:#ba2124;stroke:#e5c21f;stroke-width:1.686;paint-order:markers stroke fill;stroke-opacity:1"
       aria-label="Bame" />
  </g>
</svg>
